<svg width="448" height="350" viewBox="0 0 448 350" fill="none" xmlns="http://www.w3.org/2000/svg">
<rect width="448" height="350" fill="#331D3B"/>
<path d="M236.806 148.235H205.145V8.23535H248.053L339.634 148.235H307.974L234.827 39.9542V93.206L236.806 148.235ZM234.827 93.206H292.087L309.611 116.311H234.827V93.206Z" fill="white"/>
<path d="M410.927 148.235H442.588V288.235H399.68L308.099 148.235H339.759L412.906 256.517V203.265L410.927 148.235ZM412.906 203.265H355.646L338.122 180.159H412.906V203.265Z" fill="white"/>
<path d="M174.696 8.23535H204.241V99.1533C204.241 109.362 201.808 118.294 196.94 125.95C192.118 133.606 185.363 139.576 176.675 143.86C167.986 148.099 157.865 150.218 146.311 150.218C134.711 150.218 124.567 148.099 115.878 143.86C107.19 139.576 100.435 133.606 95.6128 125.95C90.7909 118.294 88.38 109.362 88.38 99.1533V8.23535H117.925V96.624C117.925 101.956 119.085 106.696 121.405 110.843C123.771 114.99 127.091 118.248 131.367 120.618C135.643 122.988 140.624 124.173 146.311 124.173C152.042 124.173 157.023 122.988 161.254 120.618C165.53 118.248 168.828 114.99 171.148 110.843C173.513 106.696 174.696 101.956 174.696 96.624V8.23535Z" fill="white"/>
<path d="M0 148.235V8.23535H92.5252V32.6396H29.5453V65.999H86.3841V90.4033H29.5453V148.235H0Z" fill="white"/>
<path opacity="0.7" d="M357.619 310.245L353.994 310.246L359.515 294.245L363.875 294.245L369.392 310.244L365.767 310.244L361.758 297.901L361.633 297.901L357.619 310.245ZM357.391 303.956L365.954 303.955L365.954 306.596L357.392 306.597L357.391 303.956ZM371.255 310.244L371.254 298.244L374.481 298.243L374.481 300.337L374.606 300.337C374.825 299.592 375.192 299.03 375.707 298.65C376.223 298.264 376.817 298.071 377.488 298.071C377.655 298.071 377.835 298.082 378.028 298.102C378.22 298.123 378.39 298.152 378.535 298.188L378.536 301.141C378.379 301.095 378.163 301.053 377.887 301.016C377.611 300.98 377.359 300.962 377.129 300.962C376.64 300.962 376.202 301.069 375.817 301.282C375.437 301.491 375.135 301.782 374.911 302.157C374.692 302.532 374.583 302.965 374.583 303.454L374.583 310.243L371.255 310.244ZM387.24 298.242L387.241 300.742L380.014 300.743L380.014 298.243L387.24 298.242ZM381.654 295.368L384.982 295.367L384.983 306.555C384.984 306.862 385.03 307.102 385.124 307.274C385.218 307.44 385.348 307.557 385.515 307.625C385.687 307.693 385.885 307.727 386.109 307.727C386.265 307.727 386.421 307.713 386.577 307.687C386.734 307.656 386.853 307.633 386.937 307.617L387.46 310.094C387.294 310.146 387.059 310.206 386.757 310.273C386.455 310.346 386.088 310.391 385.656 310.406C384.854 310.438 384.151 310.331 383.546 310.086C382.947 309.841 382.481 309.461 382.148 308.946C381.814 308.43 381.65 307.779 381.655 306.993L381.654 295.368ZM389.41 310.242L389.408 298.242L392.737 298.241L392.738 310.241L389.41 310.242ZM391.08 296.695C390.585 296.695 390.161 296.531 389.807 296.203C389.458 295.869 389.283 295.471 389.283 295.007C389.283 294.549 389.457 294.156 389.806 293.828C390.161 293.494 390.585 293.328 391.08 293.328C391.575 293.328 391.996 293.494 392.345 293.827C392.7 294.156 392.877 294.549 392.877 295.007C392.877 295.471 392.7 295.869 392.346 296.202C391.997 296.531 391.575 296.695 391.08 296.695ZM400.826 310.475C399.597 310.475 398.539 310.215 397.654 309.694C396.773 309.168 396.096 308.439 395.622 307.507C395.153 306.575 394.919 305.502 394.919 304.288C394.919 303.059 395.156 301.981 395.629 301.054C396.108 300.121 396.788 299.395 397.668 298.874C398.548 298.348 399.595 298.085 400.809 298.084C401.856 298.084 402.772 298.274 403.559 298.654C404.345 299.035 404.968 299.568 405.426 300.256C405.885 300.943 406.137 301.75 406.184 302.678L403.044 302.678C402.955 302.079 402.721 301.597 402.34 301.233C401.965 300.863 401.473 300.678 400.864 300.678C400.348 300.678 399.898 300.819 399.512 301.1C399.132 301.376 398.835 301.78 398.622 302.311C398.408 302.842 398.302 303.486 398.302 304.241C398.302 305.007 398.406 305.658 398.614 306.194C398.828 306.73 399.127 307.139 399.513 307.42C399.898 307.702 400.349 307.842 400.864 307.842C401.245 307.842 401.586 307.764 401.888 307.608C402.195 307.451 402.448 307.225 402.646 306.928C402.849 306.626 402.982 306.264 403.044 305.842L406.185 305.842C406.133 306.758 405.883 307.566 405.435 308.264C404.992 308.956 404.38 309.498 403.599 309.889C402.818 310.279 401.893 310.475 400.826 310.475ZM411.642 294.239L411.644 310.239L408.316 310.24L408.314 294.24L411.642 294.239ZM419.779 310.473C418.544 310.473 417.482 310.223 416.591 309.723C415.706 309.218 415.023 308.505 414.544 307.583C414.065 306.656 413.825 305.56 413.825 304.294C413.825 303.06 414.064 301.976 414.543 301.044C415.023 300.112 415.697 299.385 416.567 298.864C417.442 298.343 418.468 298.083 419.645 298.082C420.436 298.082 421.173 298.21 421.856 298.465C422.543 298.715 423.142 299.092 423.653 299.598C424.168 300.103 424.569 300.738 424.856 301.504C425.143 302.264 425.286 303.155 425.286 304.176L425.286 305.09L415.153 305.091L415.153 303.028L422.153 303.027C422.153 302.548 422.049 302.124 421.84 301.754C421.632 301.384 421.343 301.095 420.973 300.887C420.609 300.673 420.184 300.567 419.7 300.567C419.194 300.567 418.747 300.684 418.356 300.918C417.971 301.148 417.668 301.458 417.45 301.848C417.231 302.234 417.119 302.663 417.114 303.137L417.114 305.098C417.114 305.692 417.224 306.205 417.442 306.637C417.666 307.07 417.982 307.403 418.388 307.637C418.794 307.872 419.276 307.989 419.833 307.989C420.203 307.989 420.542 307.936 420.849 307.832C421.156 307.728 421.419 307.572 421.638 307.363C421.857 307.155 422.023 306.9 422.138 306.598L425.216 306.801C425.06 307.54 424.74 308.186 424.255 308.738C423.776 309.285 423.156 309.712 422.396 310.02C421.641 310.322 420.768 310.473 419.779 310.473Z" fill="white"/>
<path opacity="0.7" d="M280.282 25.0398L278.288 22.0121L294.674 17.804L297.072 21.445L286.756 34.8731L284.763 31.8455L292.857 21.6925L292.788 21.5881L280.282 25.0398ZM285.404 21.3832L290.113 28.5347L287.91 29.9905L283.201 22.839L285.404 21.3832ZM287.781 36.4293L297.792 29.8133L299.567 32.5082L297.82 33.6625L297.889 33.7669C298.63 33.539 299.302 33.5356 299.902 33.7566C300.507 33.9748 300.995 34.3644 301.364 34.9256C301.456 35.0648 301.546 35.2206 301.635 35.393C301.723 35.5655 301.792 35.7226 301.842 35.8646L299.378 37.4927C299.332 37.3364 299.247 37.1329 299.126 36.8822C299.005 36.6316 298.881 36.4105 298.755 36.2191C298.486 35.8102 298.156 35.5037 297.766 35.2995C297.383 35.0968 296.974 35.0053 296.538 35.025C296.104 35.0491 295.684 35.1961 295.275 35.466L289.611 39.209L287.781 36.4293ZM295.21 48.139C294.534 47.1124 294.17 46.0857 294.118 45.0591C294.073 44.0339 294.309 43.0663 294.826 42.1565C295.346 41.251 296.112 40.4637 297.124 39.7946C298.15 39.1169 299.18 38.7204 300.214 38.6052C301.255 38.4914 302.235 38.6585 303.154 39.1065C304.076 39.5516 304.872 40.281 305.539 41.2945C306.115 42.1689 306.46 43.0393 306.575 43.9058C306.691 44.7723 306.588 45.5865 306.266 46.3483C305.945 47.1102 305.41 47.7662 304.662 48.3165L302.935 45.6934C303.386 45.2892 303.659 44.8279 303.754 44.3093C303.857 43.7922 303.74 43.2792 303.405 42.7702C303.122 42.3396 302.756 42.0408 302.31 41.874C301.87 41.7086 301.37 41.6832 300.81 41.7978C300.249 41.9123 299.654 42.1778 299.024 42.5941C298.385 43.0163 297.899 43.4622 297.566 43.932C297.236 44.4061 297.06 44.8816 297.037 45.3586C297.014 45.8356 297.145 46.2894 297.428 46.72C297.637 47.0376 297.89 47.2795 298.187 47.4456C298.486 47.6161 298.814 47.7022 299.17 47.7038C299.534 47.7069 299.909 47.6183 300.295 47.4379L302.023 50.061C301.229 50.5229 300.418 50.7591 299.59 50.7698C298.768 50.782 297.98 50.5695 297.224 50.1323C296.469 49.6952 295.797 49.0307 295.21 48.139ZM307.143 53.2205L301.355 57.0454L299.525 54.2657L312.873 45.4443L314.652 48.1457L309.549 51.5183L309.626 51.6358C310.366 51.4715 311.069 51.5311 311.736 51.8146C312.407 52.0952 312.993 52.6161 313.495 53.3774C313.953 54.0734 314.2 54.7807 314.237 55.4994C314.281 56.2196 314.115 56.9098 313.739 57.5702C313.37 58.2321 312.794 58.8193 312.009 59.3318L305.634 63.5444L303.804 60.7647L309.683 56.8795C310.303 56.4761 310.68 56.0022 310.814 55.4578C310.951 54.9177 310.834 54.3649 310.461 53.7994C310.212 53.421 309.911 53.1392 309.558 52.9539C309.209 52.7731 308.825 52.7019 308.408 52.7405C307.998 52.7806 307.576 52.9406 307.143 53.2205ZM307.075 65.7319L317.086 59.1159L318.916 61.8956L308.905 68.5116L307.075 65.7319ZM319.296 59.6594C319.024 59.2462 318.927 58.8012 319.006 58.3245C319.092 57.8492 319.329 57.4838 319.716 57.2283C320.098 56.9756 320.522 56.9045 320.988 57.0151C321.46 57.1271 321.833 57.3897 322.105 57.803C322.377 58.2162 322.47 58.6605 322.384 59.1357C322.305 59.6124 322.074 59.9771 321.692 60.2298C321.305 60.4854 320.875 60.5572 320.402 60.4451C319.937 60.3346 319.568 60.0727 319.296 59.6594ZM323.892 69.4533L321.807 70.8316L317.833 64.7959L319.918 63.4176L323.892 69.4533ZM323.219 63.2028L325.049 65.9825L315.716 72.1505C315.459 72.3199 315.285 72.4912 315.193 72.6642C315.106 72.8344 315.08 73.0078 315.115 73.1843C315.153 73.3652 315.234 73.5492 315.357 73.7362C315.443 73.8667 315.539 73.9901 315.647 74.1062C315.759 74.2195 315.845 74.3066 315.903 74.3676L314.125 76.1702C313.99 76.0597 313.811 75.897 313.588 75.682C313.362 75.4699 313.123 75.1876 312.872 74.8352C312.405 74.1825 312.107 73.5364 311.979 72.8968C311.854 72.2616 311.915 71.6626 312.162 71.0999C312.409 70.5373 312.862 70.0413 313.521 69.612L323.219 63.2028ZM317.814 82.4692C317.135 81.4382 316.76 80.413 316.687 79.3934C316.622 78.3754 316.842 77.4121 317.347 76.5036C317.857 75.5923 318.64 74.7877 319.696 74.09C320.726 73.4094 321.761 73.0122 322.803 72.8984C323.844 72.7846 324.821 72.9474 325.734 73.3867C326.65 73.8303 327.431 74.5437 328.078 75.5269C328.514 76.1881 328.813 76.8739 328.975 77.5845C329.144 78.2966 329.159 79.005 329.018 79.7098C328.88 80.419 328.57 81.1043 328.089 81.7657C327.612 82.4242 326.948 83.0349 326.096 83.5977L325.334 84.1016L319.762 75.6386L321.482 74.5014L325.332 80.3479C325.731 80.0838 326.028 79.7627 326.222 79.3848C326.416 79.007 326.498 78.6062 326.469 78.1824C326.447 77.7602 326.302 77.3468 326.036 76.9423C325.758 76.5203 325.414 76.2108 325.004 76.0138C324.6 75.8182 324.176 75.7368 323.73 75.7694C323.288 75.7992 322.868 75.9426 322.469 76.1995L320.833 77.2807C320.338 77.608 319.97 77.9822 319.73 78.4033C319.492 78.8287 319.388 79.2756 319.415 79.7441C319.443 80.2127 319.61 80.6797 319.917 81.1451C320.12 81.454 320.35 81.708 320.606 81.9072C320.862 82.1065 321.137 82.24 321.431 82.3078C321.725 82.3757 322.029 82.3742 322.344 82.3033L323.868 84.9862C323.165 85.2635 322.45 85.352 321.723 85.2518C321.003 85.1531 320.306 84.8709 319.631 84.4053C318.964 83.941 318.358 83.2957 317.814 82.4692ZM325.019 93.4118C324.343 92.3852 323.979 91.3585 323.927 90.3318C323.881 89.3067 324.117 88.3391 324.634 87.4293C325.155 86.5238 325.921 85.7365 326.933 85.0674C327.959 84.3897 328.988 83.9932 330.023 83.878C331.064 83.7642 332.044 83.9313 332.962 84.3793C333.885 84.8244 334.68 85.5538 335.348 86.5673C335.923 87.4417 336.269 88.3121 336.384 89.1786C336.5 90.0451 336.396 90.8592 336.075 91.6211C335.753 92.3829 335.219 93.039 334.471 93.5893L332.744 90.9662C333.195 90.562 333.468 90.1007 333.563 89.5821C333.665 89.065 333.549 88.552 333.214 88.043C332.93 87.6124 332.565 87.3136 332.119 87.1468C331.679 86.9814 331.179 86.956 330.619 87.0705C330.058 87.1851 329.463 87.4506 328.833 87.8669C328.194 88.289 327.708 88.735 327.375 89.2048C327.045 89.6789 326.868 90.1544 326.846 90.6314C326.823 91.1084 326.953 91.5622 327.237 91.9928C327.446 92.3104 327.699 92.5522 327.995 92.7184C328.295 92.8889 328.623 92.975 328.979 92.9766C329.343 92.9797 329.718 92.8911 330.104 92.7107L331.831 95.3338C331.038 95.7956 330.227 96.0319 329.398 96.0426C328.577 96.0548 327.789 95.8423 327.033 95.4051C326.278 94.968 325.606 94.3035 325.019 93.4118ZM342.855 98.2535L340.769 99.6318L336.795 93.5961L338.881 92.2177L342.855 98.2535ZM342.182 92.0029L344.012 94.7826L334.679 100.951C334.422 101.12 334.248 101.291 334.156 101.464C334.069 101.635 334.043 101.808 334.078 101.985C334.116 102.165 334.196 102.349 334.32 102.536C334.405 102.667 334.502 102.79 334.61 102.906C334.722 103.02 334.807 103.107 334.866 103.168L333.088 104.97C332.953 104.86 332.774 104.697 332.551 104.482C332.324 104.27 332.085 103.988 331.835 103.635C331.368 102.983 331.07 102.337 330.942 101.697C330.817 101.062 330.878 100.463 331.125 99.9001C331.371 99.3374 331.824 98.8415 332.483 98.4122L342.182 92.0029ZM342.53 110.29L348.279 106.491L350.109 109.271L340.098 115.887L338.341 113.218L340.159 112.017L340.091 111.912C339.355 112.074 338.636 112.009 337.933 111.718C337.233 111.432 336.635 110.912 336.14 110.159C335.699 109.49 335.463 108.8 335.432 108.09C335.401 107.38 335.571 106.696 335.942 106.038C336.317 105.385 336.894 104.798 337.673 104.277L344.047 100.064L345.878 102.844L339.998 106.729C339.41 107.124 339.048 107.591 338.911 108.131C338.774 108.672 338.879 109.205 339.225 109.731C339.446 110.066 339.728 110.329 340.072 110.52C340.42 110.708 340.805 110.791 341.227 110.768C341.651 110.75 342.086 110.591 342.53 110.29ZM341.562 118.111L351.573 111.495L353.348 114.189L351.601 115.344L351.67 115.448C352.411 115.22 353.083 115.217 353.683 115.438C354.288 115.656 354.776 116.046 355.145 116.607C355.237 116.746 355.327 116.902 355.416 117.074C355.504 117.247 355.573 117.404 355.623 117.546L353.159 119.174C353.113 119.018 353.029 118.814 352.907 118.563C352.786 118.313 352.662 118.092 352.536 117.9C352.267 117.491 351.937 117.185 351.547 116.981C351.164 116.778 350.755 116.687 350.319 116.706C349.885 116.73 349.465 116.877 349.056 117.147L343.392 120.89L341.562 118.111ZM349.017 129.859C348.338 128.828 347.963 127.803 347.89 126.784C347.825 125.766 348.045 124.802 348.55 123.894C349.06 122.982 349.843 122.178 350.899 121.48C351.929 120.8 352.964 120.402 354.006 120.289C355.047 120.175 356.024 120.338 356.937 120.777C357.853 121.221 358.634 121.934 359.281 122.917C359.717 123.578 360.016 124.264 360.178 124.975C360.347 125.687 360.362 126.395 360.221 127.1C360.083 127.809 359.773 128.495 359.292 129.156C358.815 129.814 358.151 130.425 357.299 130.988L356.537 131.492L350.964 123.029L352.685 121.892L356.535 127.738C356.934 127.474 357.231 127.153 357.425 126.775C357.619 126.397 357.701 125.996 357.672 125.573C357.649 125.15 357.505 124.737 357.239 124.332C356.961 123.91 356.617 123.601 356.207 123.404C355.803 123.208 355.379 123.127 354.933 123.16C354.491 123.189 354.071 123.333 353.672 123.59L352.036 124.671C351.541 124.998 351.173 125.372 350.933 125.793C350.695 126.219 350.59 126.666 350.618 127.134C350.646 127.603 350.813 128.07 351.12 128.535C351.323 128.844 351.553 129.098 351.809 129.297C352.065 129.497 352.34 129.63 352.634 129.698C352.928 129.766 353.232 129.764 353.547 129.694L355.071 132.376C354.368 132.654 353.653 132.742 352.926 132.642C352.206 132.543 351.509 132.261 350.834 131.795C350.167 131.331 349.561 130.686 349.017 129.859Z" fill="white"/>
<path opacity="0.7" d="M1.39293 170.245L1.39125 154.245L11.985 154.244L11.9853 157.033L4.77436 157.034L4.77476 160.846L11.2826 160.845L11.2829 163.635L4.77505 163.635L4.77574 170.245L1.39293 170.245ZM21.1424 165.134L21.1417 158.243L24.4698 158.243L24.4711 170.243L21.2757 170.243L21.2755 168.063L21.1505 168.063C20.8798 168.766 20.4293 169.332 19.7991 169.759C19.1742 170.186 18.4112 170.399 17.5101 170.4C16.708 170.4 16.0023 170.217 15.3929 169.853C14.7835 169.488 14.3069 168.97 13.963 168.298C13.6244 167.626 13.4525 166.822 13.4472 165.884L13.4464 158.244L16.7745 158.243L16.7752 165.29C16.7805 165.999 16.9707 166.558 17.3457 166.97C17.7208 167.381 18.2234 167.587 18.8536 167.587C19.2546 167.587 19.6296 167.496 19.9786 167.313C20.3275 167.126 20.6087 166.85 20.8222 166.485C21.0409 166.121 21.1477 165.67 21.1424 165.134ZM33.5147 158.242L33.515 160.742L26.2884 160.742L26.2882 158.242L33.5147 158.242ZM27.9285 155.367L31.2566 155.367L31.2578 166.554C31.2578 166.862 31.3047 167.101 31.3985 167.273C31.4922 167.44 31.6225 167.557 31.7891 167.625C31.961 167.692 32.1589 167.726 32.3829 167.726C32.5391 167.726 32.6954 167.713 32.8516 167.687C33.0079 167.656 33.1277 167.632 33.211 167.617L33.7347 170.093C33.568 170.145 33.3337 170.205 33.0316 170.273C32.7295 170.346 32.3623 170.39 31.9301 170.406C31.128 170.437 30.4248 170.33 29.8206 170.086C29.2217 169.841 28.7555 169.461 28.4221 168.945C28.0887 168.43 27.9246 167.779 27.9297 166.992L27.9285 155.367ZM43.3787 165.131L43.378 158.241L46.7061 158.24L46.7074 170.24L43.5121 170.241L43.5118 168.061L43.3868 168.061C43.1161 168.764 42.6656 169.329 42.0355 169.756C41.4105 170.183 40.6475 170.397 39.7465 170.397C38.9444 170.397 38.2386 170.215 37.6292 169.851C37.0198 169.486 36.5432 168.968 36.1994 168.296C35.8608 167.624 35.6888 166.819 35.6835 165.882L35.6827 158.241L39.0108 158.241L39.0115 165.288C39.0168 165.996 39.207 166.556 39.582 166.968C39.9571 167.379 40.4597 167.585 41.0899 167.585C41.491 167.585 41.8659 167.493 42.2149 167.311C42.5638 167.123 42.845 166.847 43.0585 166.483C43.2773 166.118 43.384 165.668 43.3787 165.131ZM49.3695 170.24L49.3682 158.24L52.5948 158.24L52.595 160.333L52.72 160.333C52.9387 159.589 53.3058 159.026 53.8214 158.646C54.337 158.26 54.9307 158.067 55.6026 158.067C55.7693 158.067 55.9489 158.078 56.1417 158.099C56.3344 158.119 56.5036 158.148 56.6495 158.184L56.6498 161.138C56.4935 161.091 56.2774 161.049 56.0013 161.013C55.7253 160.976 55.4727 160.958 55.2435 160.958C54.7539 160.958 54.3164 161.065 53.9311 161.279C53.5509 161.487 53.2488 161.779 53.0249 162.154C52.8062 162.529 52.6969 162.961 52.6969 163.451L52.6976 170.24L49.3695 170.24ZM63.2816 170.473C62.0472 170.473 60.9847 170.223 60.094 169.723C59.2086 169.218 58.5262 168.505 58.0469 167.583C57.5677 166.656 57.328 165.559 57.3279 164.294C57.3277 163.059 57.5672 161.976 58.0463 161.044C58.5253 160.111 59.1997 159.385 60.0695 158.864C60.9444 158.343 61.9704 158.082 63.1475 158.082C63.9392 158.082 64.6762 158.21 65.3585 158.465C66.046 158.715 66.645 159.092 67.1555 159.597C67.6712 160.103 68.0723 160.738 68.3588 161.504C68.6453 162.264 68.7887 163.155 68.7888 164.175L68.7889 165.089L58.6561 165.091L58.6558 163.028L65.6558 163.027C65.6558 162.548 65.5516 162.124 65.3432 161.754C65.1348 161.384 64.8457 161.095 64.4759 160.887C64.1113 160.673 63.6868 160.567 63.2025 160.567C62.6973 160.567 62.2493 160.684 61.8587 160.918C61.4734 161.148 61.1713 161.457 60.9526 161.848C60.7339 162.234 60.622 162.663 60.6168 163.137L60.617 165.098C60.6171 165.692 60.7265 166.205 60.9453 166.637C61.1693 167.069 61.4844 167.403 61.8907 167.637C62.297 167.871 62.7788 167.989 63.3361 167.988C63.7058 167.988 64.0444 167.936 64.3517 167.832C64.6589 167.728 64.9219 167.572 65.1407 167.363C65.3594 167.155 65.526 166.9 65.6406 166.598L68.7187 166.8C68.5626 167.54 68.2423 168.186 67.758 168.738C67.2789 169.285 66.6591 169.712 65.8988 170.019C65.1436 170.322 64.2712 170.473 63.2816 170.473Z" fill="white"/>
</svg>
