<svg width="109" height="80" viewBox="0 0 109 80" fill="none" xmlns="http://www.w3.org/2000/svg">
<path d="M50.2217 28.2471H43V2H53.4397L75.7217 36H68.0185L50.2217 9.70315V22.6357V28.2471ZM50.2217 22.6357H64.1532L68.417 28.2471H50.2217V22.6357Z" fill="white"/>
<path d="M93.0676 36H100.771V70H90.331L68.049 36H75.7522L93.549 62.2969V49.3643L93.0676 36ZM93.549 49.3643H79.6175L75.3537 43.7529H93.549V49.3643Z" fill="white"/>
<path d="M42.5041 2H49.6926V24.0801C49.6926 26.5592 49.1005 28.7285 47.9163 30.5879C46.7431 32.4472 45.0995 33.8971 42.9856 34.9375C40.8717 35.9668 38.4091 36.4814 35.5979 36.4814C32.7756 36.4814 30.3075 35.9668 28.1936 34.9375C26.0797 33.8971 24.4361 32.4472 23.2629 30.5879C22.0898 28.7285 21.5032 26.5592 21.5032 24.0801V2H28.6916V23.4658C28.6916 24.7607 28.9739 25.9118 29.5383 26.9189C30.1138 27.9261 30.9218 28.7174 31.9622 29.293C33.0025 29.8685 34.2144 30.1562 35.5979 30.1562C36.9924 30.1562 38.2043 29.8685 39.2336 29.293C40.274 28.7174 41.0764 27.9261 41.6409 26.9189C42.2164 25.9118 42.5041 24.7607 42.5041 23.4658V2Z" fill="white"/>
<path d="M0 36V2H22.5117V7.92676H7.18847V16.0283H21.0176V21.9551H7.18847V36H0Z" fill="white"/>
</svg>
