<svg width="109" height="80" viewBox="0 0 109 80" fill="none" xmlns="http://www.w3.org/2000/svg">
<path d="M50.2217 28.2471H43V2H53.4397L75.7217 36H68.0185L50.2217 9.70315V22.6357V28.2471ZM50.2217 22.6357H64.1532L68.417 28.2471H50.2217V22.6357Z" fill="#331D3B"/>
<path d="M93.0673 36H100.77V70H90.3308L68.0488 36H75.7519L93.5488 62.2969V49.3643L93.0673 36ZM93.5488 49.3643H79.6172L75.3535 43.7529H93.5488V49.3643Z" fill="#331D3B"/>
<path d="M42.5039 2H49.6924V24.0801C49.6924 26.5592 49.1002 28.7285 47.916 30.5879C46.7428 32.4472 45.0993 33.8971 42.9853 34.9375C40.8714 35.9668 38.4088 36.4814 35.5977 36.4814C32.7754 36.4814 30.3073 35.9668 28.1934 34.9375C26.0794 33.8971 24.4359 32.4472 23.2627 30.5879C22.0895 28.7285 21.5029 26.5592 21.5029 24.0801V2H28.6914V23.4658C28.6914 24.7607 28.9736 25.9118 29.5381 26.9189C30.1136 27.9261 30.9215 28.7174 31.9619 29.293C33.0023 29.8685 34.2142 30.1562 35.5977 30.1562C36.9922 30.1562 38.2041 29.8685 39.2334 29.293C40.2738 28.7174 41.0762 27.9261 41.6406 26.9189C42.2161 25.9118 42.5039 24.7607 42.5039 23.4658V2Z" fill="#331D3B"/>
<path d="M0 36V2H22.5117V7.92676H7.18847V16.0283H21.0176V21.9551H7.18847V36H0Z" fill="#331D3B"/>
</svg>
